Patient4_TMGait_0pt6_02_right_30_EMG.mot
version=1
nRows=30
nColumns=33
inDegrees=no
endheader
time	1LAddLong	2LGlutMax	3LGlutMed	4LIliopsoas	5LSemiMemb	6LBicFemLong	7LRecFem	8LVastMed	9LVastLat	10LGasMed	11LTibAnt	12lTibPost	13LPeroneusLong	14LSol	15LExtDigLong	16LFlexDigLong	17RAddLong	18RGlutMax	19RGlutMed	20RIliopsoas	21RSemiMemb	22RBicFemLong	23RRecFem	24RVastMed	25RVastLat	26RGasMed	27RTibAnt	28RTibPost	29RPeroneusLong	30RSol	31RExtDigLong	32RFlexDigLong
36.527	-0.000458	-0.20523	0.059052	-0.01236	0.023499	-0.017548	0.65323	0.010681	0.15503	-0.054932	-0.005798	0.58609	-0.24963	-0.10483	-0.013885	-0.10376	-0.048981	-0.33691	0.54459	-0.035095	0.01236	0.071106	-0.52094	0.10666	0.14694	0.007019	0.29129	-0.028992	-0.17593	0.24429	-0.001526	-0.005341
36.528	-0.001373	-0.22629	0.078583	0.001221	0.026093	-0.02594	0.62988	-0.002594	0.1358	-0.079193	0.001678	-0.32623	-0.27542	-0.21347	-0.012207	0.22553	-0.02182	-0.43243	0.19394	0.006866	0.003662	0.042725	-0.34836	-0.091553	0.159	0.039368	0.032501	-0.025024	0.55176	-0.018158	-0.00473	0.004272
36.529	-0.002899	-0.19867	0.11154	0.00946	0.02655	-0.013123	0.49439	0.005951	0.1442	-0.10056	0.001678	-0.14633	-0.083466	0.092316	0.021362	0.002747	-0.009766	-0.34317	-0.006561	-0.045776	0.16556	0.1004	-0.32593	-0.16998	0.06134	0.034943	-0.053711	-0.023193	-0.52719	-0.062103	-0.005951	0.00946
36.53	-0.001526	-0.21408	0.097961	0.019989	0.022736	0.002899	0.22705	0.015564	0.11627	-0.058594	-0.014038	-0.098114	0.048828	0.22278	-0.027161	0.12924	-0.002899	-0.34027	0.041962	-0.046539	0.17181	0.081024	-0.11765	-0.20493	-0.30121	0.026245	0.00061	-0.017242	-2.4936	-0.008392	-0.005798	0.010223
36.531	-0.007172	-0.20889	0.079346	0.021515	0.014343	-0.010986	0.017242	0.018921	0.10773	0.11536	-0.017548	-0.082397	0.084534	0.1738	-0.016937	-0.015106	0.019531	-0.37888	-0.098419	-0.041656	0.097351	-0.011902	-0.03891	-0.30731	-0.53513	0.049438	0.10834	-0.016479	-1.9211	-0.06424	-0.002899	0.008698
36.532	0.000763	-0.24033	0.080872	0.040131	0.016785	-0.00824	-0.15167	0.02121	0.13702	0.24811	-0.009155	-0.27679	-0.050812	0.43335	-0.011139	-0.27863	0.030365	-0.32989	0.10483	-0.047302	-0.061951	-0.044861	0.010223	-0.13397	-0.55954	0.038605	0.14618	-0.009003	-0.57266	-0.23865	-0.00351	0.00351
36.533	-0.005646	-0.29251	0.093689	0.035858	0.016479	-0.011444	-0.15015	0.017853	0.14969	0.28732	-0.00824	0.47684	0.044403	0.14908	0.011749	-0.29816	0.061951	-0.28732	0.2446	-0.18249	-0.18387	-0.22308	0.11124	0.1329	-0.68085	0.040131	0.18204	0.048676	1.0365	-0.3331	-0.005188	0.00885
36.534	-0.002289	-0.33691	0.094604	0.013733	0.021667	-0.008392	-0.20889	0.007629	0.14725	0.18402	-0.021362	0.14984	0.25131	-0.096741	0.034637	0.20706	0.053864	-0.35461	0.18021	-0.16571	-0.38071	-0.2417	0.21896	0.20523	-0.8638	-0.068054	0.11963	0.009613	0.71167	-0.17639	-0.002136	0.007629
36.535	-0.003662	-0.35126	0.074158	-0.015869	0.011902	0.004578	-0.22049	0.013123	0.11963	-0.13001	-0.007782	0.21591	0.012207	-0.001831	0.06012	0.062866	0.068817	-0.3688	-0.27435	0.027771	-0.24994	-0.24399	0.13855	0.74402	-0.17258	-0.11154	0.011139	-0.007172	-0.60013	0.014648	-0.002899	0.007629
36.536	-0.001678	-0.31525	0.070953	0.010986	0.027313	-0.005341	-0.24674	0.006409	0.11749	-0.5835	-0.00946	-0.24948	-0.41412	-0.17044	0.054474	-0.019684	0.050659	-0.3186	-0.59036	0.11826	0.034943	-0.13916	0.025787	1.3037	0.20203	-0.011749	-0.08728	0.005035	-2.0839	-0.11231	-0.005951	0.010223
36.537	-0.001373	-0.28	0.072327	0.04776	0.018463	-0.021057	-0.21088	0.000305	0.13321	-0.61295	-0.008087	0.06485	-0.38116	-0.10666	0.027161	0.069885	0.023499	-0.26596	-0.16327	0.14114	0.10376	-0.18738	0.045929	0.75851	0.13168	0.020447	0.10162	0.010223	-0.75226	-0.18967	0.009155	-0.002899
36.538	-0.000458	-0.29816	0.079193	0.035706	0.001221	0.00885	-0.11185	-0.000916	0.11398	-0.47577	-0.023346	-0.16434	-0.27893	-0.08194	-0.016022	-0.001373	0.034485	-0.32333	0.57877	0.15656	0.14145	-0.40237	0.19608	0.16937	-0.034485	0.003052	0.14755	-0.014801	1.312	-0.16678	-0.003967	0.002289
36.539	0.001678	-0.31448	0.08606	0.039368	0.002136	0.010223	0.045471	-0.017548	0.097961	-0.19028	-0.059814	-0.20859	-0.21439	-0.31738	-0.053101	-0.003357	-0.030975	-0.47913	0.92133	0.048218	-0.063629	-0.48157	0.20142	-0.3804	-0.23071	0.009918	0.025787	-0.02533	1.5511	-0.23285	-0.00061	-0.000916
36.54	-0.005035	-0.36316	0.10071	0.015564	0.002136	0.017395	0.050964	-0.008545	0.064545	-0.044098	-0.066223	-0.059052	-0.28107	-0.41046	-0.052032	-0.001221	-0.055695	-0.54092	0.46112	0.022278	-0.02594	-0.20737	0.087433	-0.5452	-0.38406	0.011597	0.019226	-0.031586	-0.28686	-0.40466	-0.002899	0.007324
36.541	-0.016785	-0.32364	0.091553	-0.006561	0.024414	0.025787	0.028687	0.006256	0.046692	-0.064697	-0.071869	0.039978	0.017395	-0.25116	-0.014801	-0.001526	-0.029144	-0.63446	0.26276	0.011749	0.021515	-0.079041	0.10651	-0.47852	-0.34897	0.044098	-0.099182	0.056152	-0.66498	-0.513	0.003204	0.005493
36.542	-0.016022	-0.29953	0.10757	-0.028381	-0.002441	0.018311	0.097198	0.00824	0.025482	-0.074615	-0.09613	0.020599	0.056763	0.27847	0.030823	-0.024872	-0.019836	-0.71533	0.11643	0.009155	0.092468	0.17792	0.22461	-0.15884	-0.12985	0.035095	-0.14648	0.049286	0.49103	-0.26779	-0.002747	0.002289
36.543	-0.031433	-0.24994	0.10483	-0.014801	0.00824	0.045624	0.16342	0.009308	0.025635	-0.055084	-0.070953	0.012665	-0.032654	0.5484	0.085449	-0.00824	-0.027008	-0.84473	0.20493	-0.076447	0.11139	0.3923	0.32455	0.078735	-0.039673	0.033569	-0.083923	-0.001678	1.1981	0.062408	-0.00412	-0.002136
36.544	-0.037537	-0.21759	0.11902	-0.032806	-0.005341	0.014343	0.24689	0.015411	0.01709	-0.063934	0.042572	-0.000305	-0.079803	1.1781	0.13733	0.024872	-0.075073	-0.85815	-0.085907	-0.081177	-0.078583	0.50873	0.28854	0.078583	0.077057	0.044861	-0.36591	-0.024567	1.201	0.13245	-0.003815	-0.003052
36.545	-0.039673	-0.16693	0.13412	-0.033264	0.0177	0.018616	0.14297	0.019531	0.003357	0.032043	0.04837	-0.016937	-0.11658	1.0776	0.088196	-0.005341	-0.11887	-0.89035	-0.56702	-0.053101	-0.15442	0.62363	0.1619	0.13275	-0.045471	0.03006	-0.17777	0.045471	-0.81741	0.29236	-0.011292	-0.008545
36.546	-0.027771	-0.11597	0.11429	-0.014343	0.02533	0.005493	0.045776	0.019379	0.019684	0.20096	0.067902	-0.021515	-0.062866	0.2887	0.008698	0.006256	-0.14145	-0.99792	-0.45197	-0.080414	0.057068	0.41443	-0.099335	0.20386	-0.023041	0.029449	0.004272	0.036316	-0.4187	0.13016	-0.00412	-0.007935
36.547	-0.023956	-0.090027	0.053711	-0.029602	0.022583	-0.008392	-0.045013	0.015106	0.031738	0.013123	0.16449	-0.024414	-0.080261	-0.168	0.006561	0.009155	-0.093079	-1.1095	-0.34454	-0.10635	0.12436	0.29373	0.12695	0.33112	-0.33203	0.005341	-0.046692	-0.007172	0.44311	0.22644	-0.001831	-0.010834
36.548	-0.021362	-0.016174	0.060577	-0.033722	0.01236	0.002289	-0.15091	0.011597	0.037689	-0.10101	0.24689	-0.016479	-0.059357	-0.19989	0.072021	-0.003204	-0.032349	-1.2642	-0.36667	-0.086212	-0.00412	0.13016	0.16388	0.22949	-0.49484	-0.008392	-0.054779	-0.019531	-0.21393	0.20828	-0.002289	-0.010529
36.549	-0.0177	0.086212	0.081635	-0.027466	0.019836	0.010681	-0.1004	0.017242	0.016174	-0.16388	0.20172	-0.013733	-0.059814	-0.032196	0.060425	0.02182	-0.012817	-1.3367	-0.4451	-0.059052	0.05127	-0.21286	0.14938	0.079956	-0.52383	0.003357	-0.1709	-0.013428	-0.026398	-0.13611	-0.00473	-0.005493
36.55	-0.011749	0.14023	0.10193	-0.004425	0.016632	0.016785	-0.06546	0.010376	-0.020142	-0.21378	0.14694	-0.013123	-0.060272	-0.046692	-0.045776	-0.006714	0.003357	-1.5575	-0.30426	-0.038757	0.006866	-0.42679	0.27374	-0.33371	-0.32959	0.0177	-0.03067	-0.007172	-0.11612	-0.15228	-0.004425	-0.000153
36.551	-0.008698	0.19379	0.074768	-0.008698	0.000458	0.022125	-0.069122	0.007477	-0.027771	-0.23315	0.080261	0.003052	-0.061951	-0.007324	0.071411	-0.016174	0.005951	-1.6805	-0.23361	-0.055542	-0.092621	-0.3273	0.3215	-0.4007	-0.2507	0.003815	0.11749	-0.016479	-0.32516	0.0354	-0.003967	-0.003815
36.552	-0.011292	0.26245	0.071259	-0.01236	0.024872	0.021057	-0.049896	0.020142	-0.044403	-0.035248	0.017853	0.003357	-0.050812	0.088806	-0.067291	-0.013123	0.023956	-1.9008	-0.58563	-0.050659	-0.18219	-0.11734	0.39475	-0.15854	-0.23804	-0.11719	0.20081	-0.020142	-0.33463	0.12192	-0.004883	-0.003357
36.553	-0.011139	0.33173	0.061646	-0.018311	0.018616	0.023651	-0.1152	0.03067	-0.049591	0.10559	0.002899	-0.019684	-0.008087	0.083466	-0.14481	0.007019	0.018768	-2.0575	-0.67337	-0.003662	-0.23468	-0.13321	0.45532	-0.11032	-0.20233	-0.055542	-0.027771	-0.025635	-0.56976	0.046387	-0.005798	-0.00061
36.554	-0.017242	0.45883	0.036926	-0.014801	0.011749	0.033112	-0.24643	0.028381	-0.045319	-0.016327	-0.15701	-0.007019	0.020294	0.095673	-0.22492	0.004578	0.009308	-1.974	-0.52246	0.047913	-0.2005	-0.19928	0.53955	-0.008545	-0.20035	0.051422	-0.19699	-0.03067	-0.19653	-0.19882	-0.005188	-0.001984
36.555	-0.023804	0.5069	0.010071	-0.0177	0.024872	0.034027	-0.39841	0.030365	-0.040283	-0.081024	-0.34882	0.003357	-0.017853	0.12985	-0.19409	0.00061	-0.006409	-2.025	-0.36118	-0.003357	0.001221	-0.22598	0.58838	0.29297	-0.16769	0.038757	0.054321	0.003967	-0.2301	-0.2919	-0.004272	-0.019073
36.556	-0.022583	0.60364	0.038452	-0.005951	0.035706	0.035095	-0.25909	0.040436	-0.023804	0.028076	-0.21515	0.024872	-0.087891	0.10666	-0.16464	0.014801	0.03479	-2.0786	0.071716	0.061951	0.014648	-0.18784	0.67749	0.43839	-0.12268	0.032043	0.32898	0.1001	0.12756	-0.28824	-0.003052	-0.018005
